# xmcd
#
# Track frame offsets:
#	150
#	19960
#	27645
#	37517
#	42530
#	52202
#	67102
#	76265
#	80170
#	87790
#	96487
#	107482
#	116700
#	121732
#	136025
#	148500
#	157545
#	172084
#	181710
#	191010
#	200125
#	202342
#	211110
#	214335
#	226842
#	233010
#	239207
#	248170
#	254002
#	263705
#	273285
#	284717
#	289960
#	303915
#	312367
#	323710
#
# Disc length: 4433 seconds
#
# Revision: 1
# Processed by: cddbd v1.5.1PL0 Copyright (c) Steve Scherf et al.
# Submitted via: CDex 1.50Beta5
#
DISCID=1f114f24
DTITLE=スペランカーズ - ニセピラミッド
DYEAR=2003
DGENRE=Pop
TTITLE0=Yonesuke Supermix
TTITLE1=シギン
TTITLE2=赤坂
TTITLE3=青空
TTITLE4=Ajadanja
TTITLE5=美川のディスカウントプリーズ
TTITLE6=ファッション通信
TTITLE7=出たMono
TTITLE8=ゲーム王国
TTITLE9=Kiriko
TTITLE10=お料理Banban
TTITLE11=チューボーですよ
TTITLE12=Konishiki
TTITLE13=イハチ
TTITLE14=小心者バスツアー
TTITLE15=ズコ
TTITLE16=ひとりでできた
TTITLE17=ダッフンダ
TTITLE18=Onoonoono
TTITLE19=いい日カニ玉
TTITLE20=エクスタノー
TTITLE21=Ryoonoのテーマ
TTITLE22=Friends
TTITLE23=JUN
TTITLE24=ジャパネット
TTITLE25=鳥人間
TTITLE26=Tonight２
TTITLE27=Ｉｓｓｅｉ
TTITLE28=ハムスター
TTITLE29=生活笑百科
TTITLE30=テクノクリニック
TTITLE31=プロ野球珍プレー好プレー
TTITLE32=ためしてガッテン
TTITLE33=E-Tomorrow
TTITLE34=ボヨヨ〜ン
TTITLE35=Vivanon
EXTD=
EXTT0=
EXTT1=
EXTT2=
EXTT3=
EXTT4=
EXTT5=
EXTT6=
EXTT7=
EXTT8=
EXTT9=
EXTT10=
EXTT11=
EXTT12=
EXTT13=
EXTT14=
EXTT15=
EXTT16=
EXTT17=
EXTT18=
EXTT19=
EXTT20=
EXTT21=
EXTT22=
EXTT23=
EXTT24=
EXTT25=
EXTT26=
EXTT27=
EXTT28=
EXTT29=
EXTT30=
EXTT31=
EXTT32=
EXTT33=
EXTT34=
EXTT35=
PLAYORDER=
